<mxfile host="app.diagrams.net" agent="Mozilla/5.0 (Windows NT 10.0; Win64; x64) AppleWebKit/537.36 (KHTML, like Gecko) Chrome/130.0.0.0 Safari/537.36" version="24.8.4">
  <diagram name="Страница — 1" id="1XmsDNhjAmmeua2q7J8N">
    <mxGraphModel dx="819" dy="441" grid="1" gridSize="10" guides="1" tooltips="1" connect="1" arrows="1" fold="1" page="1" pageScale="1" pageWidth="827" pageHeight="1169" math="0" shadow="0">
      <root>
        <mxCell id="0" />
        <mxCell id="1" parent="0" />
        <mxCell id="RUVpXgQ6pnVlFUIPlwBY-1" value="Employee" style="swimlane;fontStyle=0;childLayout=stackLayout;horizontal=1;startSize=26;fillColor=none;horizontalStack=0;resizeParent=1;resizeParentMax=0;resizeLast=0;collapsible=1;marginBottom=0;whiteSpace=wrap;html=1;" parent="1" vertex="1">
          <mxGeometry x="580" y="280" width="140" height="160" as="geometry" />
        </mxCell>
        <mxCell id="RUVpXgQ6pnVlFUIPlwBY-19" value="id: integer" style="text;strokeColor=none;fillColor=none;align=left;verticalAlign=top;spacingLeft=4;spacingRight=4;overflow=hidden;rotatable=0;points=[[0,0.5],[1,0.5]];portConstraint=eastwest;whiteSpace=wrap;html=1;" parent="RUVpXgQ6pnVlFUIPlwBY-1" vertex="1">
          <mxGeometry y="26" width="140" height="26" as="geometry" />
        </mxCell>
        <mxCell id="RUVpXgQ6pnVlFUIPlwBY-24" value="firstName: varchar" style="text;strokeColor=none;fillColor=none;align=left;verticalAlign=top;spacingLeft=4;spacingRight=4;overflow=hidden;rotatable=0;points=[[0,0.5],[1,0.5]];portConstraint=eastwest;whiteSpace=wrap;html=1;" parent="RUVpXgQ6pnVlFUIPlwBY-1" vertex="1">
          <mxGeometry y="52" width="140" height="26" as="geometry" />
        </mxCell>
        <mxCell id="RUVpXgQ6pnVlFUIPlwBY-25" value="lastName: varchar" style="text;strokeColor=none;fillColor=none;align=left;verticalAlign=top;spacingLeft=4;spacingRight=4;overflow=hidden;rotatable=0;points=[[0,0.5],[1,0.5]];portConstraint=eastwest;whiteSpace=wrap;html=1;" parent="RUVpXgQ6pnVlFUIPlwBY-1" vertex="1">
          <mxGeometry y="78" width="140" height="26" as="geometry" />
        </mxCell>
        <mxCell id="RUVpXgQ6pnVlFUIPlwBY-30" value="current_task_id: integer" style="text;strokeColor=none;fillColor=none;align=left;verticalAlign=top;spacingLeft=4;spacingRight=4;overflow=hidden;rotatable=0;points=[[0,0.5],[1,0.5]];portConstraint=eastwest;whiteSpace=wrap;html=1;" parent="RUVpXgQ6pnVlFUIPlwBY-1" vertex="1">
          <mxGeometry y="104" width="140" height="26" as="geometry" />
        </mxCell>
        <mxCell id="RUVpXgQ6pnVlFUIPlwBY-31" value="history_id: integer" style="text;strokeColor=none;fillColor=none;align=left;verticalAlign=top;spacingLeft=4;spacingRight=4;overflow=hidden;rotatable=0;points=[[0,0.5],[1,0.5]];portConstraint=eastwest;whiteSpace=wrap;html=1;" parent="RUVpXgQ6pnVlFUIPlwBY-1" vertex="1">
          <mxGeometry y="130" width="140" height="30" as="geometry" />
        </mxCell>
        <mxCell id="RUVpXgQ6pnVlFUIPlwBY-5" value="Task" style="swimlane;fontStyle=0;childLayout=stackLayout;horizontal=1;startSize=26;fillColor=none;horizontalStack=0;resizeParent=1;resizeParentMax=0;resizeLast=0;collapsible=1;marginBottom=0;whiteSpace=wrap;html=1;" parent="1" vertex="1">
          <mxGeometry x="290" y="30" width="220" height="286" as="geometry" />
        </mxCell>
        <mxCell id="RUVpXgQ6pnVlFUIPlwBY-6" value="id: integer" style="text;strokeColor=none;fillColor=none;align=left;verticalAlign=top;spacingLeft=4;spacingRight=4;overflow=hidden;rotatable=0;points=[[0,0.5],[1,0.5]];portConstraint=eastwest;whiteSpace=wrap;html=1;" parent="RUVpXgQ6pnVlFUIPlwBY-5" vertex="1">
          <mxGeometry y="26" width="220" height="26" as="geometry" />
        </mxCell>
        <mxCell id="RUVpXgQ6pnVlFUIPlwBY-8" value="name: varchar" style="text;strokeColor=none;fillColor=none;align=left;verticalAlign=top;spacingLeft=4;spacingRight=4;overflow=hidden;rotatable=0;points=[[0,0.5],[1,0.5]];portConstraint=eastwest;whiteSpace=wrap;html=1;" parent="RUVpXgQ6pnVlFUIPlwBY-5" vertex="1">
          <mxGeometry y="52" width="220" height="26" as="geometry" />
        </mxCell>
        <mxCell id="RUVpXgQ6pnVlFUIPlwBY-20" value="start_time: date/time" style="text;strokeColor=none;fillColor=none;align=left;verticalAlign=top;spacingLeft=4;spacingRight=4;overflow=hidden;rotatable=0;points=[[0,0.5],[1,0.5]];portConstraint=eastwest;whiteSpace=wrap;html=1;" parent="RUVpXgQ6pnVlFUIPlwBY-5" vertex="1">
          <mxGeometry y="78" width="220" height="26" as="geometry" />
        </mxCell>
        <mxCell id="RUVpXgQ6pnVlFUIPlwBY-21" value="end_time: date/time" style="text;strokeColor=none;fillColor=none;align=left;verticalAlign=top;spacingLeft=4;spacingRight=4;overflow=hidden;rotatable=0;points=[[0,0.5],[1,0.5]];portConstraint=eastwest;whiteSpace=wrap;html=1;" parent="RUVpXgQ6pnVlFUIPlwBY-5" vertex="1">
          <mxGeometry y="104" width="220" height="26" as="geometry" />
        </mxCell>
        <mxCell id="RUVpXgQ6pnVlFUIPlwBY-62" value="actual_completion_time: time" style="text;strokeColor=none;fillColor=none;align=left;verticalAlign=top;spacingLeft=4;spacingRight=4;overflow=hidden;rotatable=0;points=[[0,0.5],[1,0.5]];portConstraint=eastwest;whiteSpace=wrap;html=1;" parent="RUVpXgQ6pnVlFUIPlwBY-5" vertex="1">
          <mxGeometry y="130" width="220" height="26" as="geometry" />
        </mxCell>
        <mxCell id="RUVpXgQ6pnVlFUIPlwBY-22" value="status: varchar" style="text;strokeColor=none;fillColor=none;align=left;verticalAlign=top;spacingLeft=4;spacingRight=4;overflow=hidden;rotatable=0;points=[[0,0.5],[1,0.5]];portConstraint=eastwest;whiteSpace=wrap;html=1;" parent="RUVpXgQ6pnVlFUIPlwBY-5" vertex="1">
          <mxGeometry y="156" width="220" height="26" as="geometry" />
        </mxCell>
        <mxCell id="RUVpXgQ6pnVlFUIPlwBY-63" value="priority: varchar" style="text;strokeColor=none;fillColor=none;align=left;verticalAlign=top;spacingLeft=4;spacingRight=4;overflow=hidden;rotatable=0;points=[[0,0.5],[1,0.5]];portConstraint=eastwest;whiteSpace=wrap;html=1;" parent="RUVpXgQ6pnVlFUIPlwBY-5" vertex="1">
          <mxGeometry y="182" width="220" height="26" as="geometry" />
        </mxCell>
        <mxCell id="RUVpXgQ6pnVlFUIPlwBY-56" value="description: varchar" style="text;strokeColor=none;fillColor=none;align=left;verticalAlign=top;spacingLeft=4;spacingRight=4;overflow=hidden;rotatable=0;points=[[0,0.5],[1,0.5]];portConstraint=eastwest;whiteSpace=wrap;html=1;" parent="RUVpXgQ6pnVlFUIPlwBY-5" vertex="1">
          <mxGeometry y="208" width="220" height="26" as="geometry" />
        </mxCell>
        <mxCell id="RUVpXgQ6pnVlFUIPlwBY-61" value="attachment: blob" style="text;strokeColor=none;fillColor=none;align=left;verticalAlign=top;spacingLeft=4;spacingRight=4;overflow=hidden;rotatable=0;points=[[0,0.5],[1,0.5]];portConstraint=eastwest;whiteSpace=wrap;html=1;" parent="RUVpXgQ6pnVlFUIPlwBY-5" vertex="1">
          <mxGeometry y="234" width="220" height="26" as="geometry" />
        </mxCell>
        <mxCell id="RUVpXgQ6pnVlFUIPlwBY-27" value="history_id: integer" style="text;strokeColor=none;fillColor=none;align=left;verticalAlign=top;spacingLeft=4;spacingRight=4;overflow=hidden;rotatable=0;points=[[0,0.5],[1,0.5]];portConstraint=eastwest;whiteSpace=wrap;html=1;" parent="RUVpXgQ6pnVlFUIPlwBY-5" vertex="1">
          <mxGeometry y="260" width="220" height="26" as="geometry" />
        </mxCell>
        <mxCell id="RUVpXgQ6pnVlFUIPlwBY-13" value="History" style="swimlane;fontStyle=0;childLayout=stackLayout;horizontal=1;startSize=26;fillColor=none;horizontalStack=0;resizeParent=1;resizeParentMax=0;resizeLast=0;collapsible=1;marginBottom=0;whiteSpace=wrap;html=1;" parent="1" vertex="1">
          <mxGeometry x="270" y="330" width="170" height="78" as="geometry" />
        </mxCell>
        <mxCell id="RUVpXgQ6pnVlFUIPlwBY-18" value="id: integer" style="text;strokeColor=none;fillColor=none;align=left;verticalAlign=top;spacingLeft=4;spacingRight=4;overflow=hidden;rotatable=0;points=[[0,0.5],[1,0.5]];portConstraint=eastwest;whiteSpace=wrap;html=1;" parent="RUVpXgQ6pnVlFUIPlwBY-13" vertex="1">
          <mxGeometry y="26" width="170" height="26" as="geometry" />
        </mxCell>
        <mxCell id="RUVpXgQ6pnVlFUIPlwBY-15" value="lastModified: date/time" style="text;strokeColor=none;fillColor=none;align=left;verticalAlign=top;spacingLeft=4;spacingRight=4;overflow=hidden;rotatable=0;points=[[0,0.5],[1,0.5]];portConstraint=eastwest;whiteSpace=wrap;html=1;" parent="RUVpXgQ6pnVlFUIPlwBY-13" vertex="1">
          <mxGeometry y="52" width="170" height="26" as="geometry" />
        </mxCell>
        <mxCell id="RUVpXgQ6pnVlFUIPlwBY-41" value="" style="endArrow=none;html=1;edgeStyle=orthogonalEdgeStyle;rounded=0;exitX=1;exitY=0.5;exitDx=0;exitDy=0;entryX=0;entryY=0.5;entryDx=0;entryDy=0;" parent="1" source="RUVpXgQ6pnVlFUIPlwBY-18" target="RUVpXgQ6pnVlFUIPlwBY-31" edge="1">
          <mxGeometry relative="1" as="geometry">
            <mxPoint x="490" y="370" as="sourcePoint" />
            <mxPoint x="650" y="370" as="targetPoint" />
          </mxGeometry>
        </mxCell>
        <mxCell id="RUVpXgQ6pnVlFUIPlwBY-42" value="1" style="edgeLabel;resizable=0;html=1;align=left;verticalAlign=bottom;" parent="RUVpXgQ6pnVlFUIPlwBY-41" connectable="0" vertex="1">
          <mxGeometry x="-1" relative="1" as="geometry" />
        </mxCell>
        <mxCell id="RUVpXgQ6pnVlFUIPlwBY-43" value="1" style="edgeLabel;resizable=0;html=1;align=right;verticalAlign=bottom;" parent="RUVpXgQ6pnVlFUIPlwBY-41" connectable="0" vertex="1">
          <mxGeometry x="1" relative="1" as="geometry">
            <mxPoint x="-20" as="offset" />
          </mxGeometry>
        </mxCell>
        <mxCell id="RUVpXgQ6pnVlFUIPlwBY-44" value="" style="endArrow=none;html=1;edgeStyle=orthogonalEdgeStyle;rounded=0;exitX=1;exitY=0.5;exitDx=0;exitDy=0;entryX=0;entryY=0.5;entryDx=0;entryDy=0;" parent="1" source="RUVpXgQ6pnVlFUIPlwBY-6" target="RUVpXgQ6pnVlFUIPlwBY-30" edge="1">
          <mxGeometry relative="1" as="geometry">
            <mxPoint x="579.51" y="110" as="sourcePoint" />
            <mxPoint x="540" y="300" as="targetPoint" />
          </mxGeometry>
        </mxCell>
        <mxCell id="RUVpXgQ6pnVlFUIPlwBY-45" value="1" style="edgeLabel;resizable=0;html=1;align=left;verticalAlign=bottom;" parent="RUVpXgQ6pnVlFUIPlwBY-44" connectable="0" vertex="1">
          <mxGeometry x="-1" relative="1" as="geometry">
            <mxPoint x="10" as="offset" />
          </mxGeometry>
        </mxCell>
        <mxCell id="RUVpXgQ6pnVlFUIPlwBY-46" value="1" style="edgeLabel;resizable=0;html=1;align=right;verticalAlign=bottom;" parent="RUVpXgQ6pnVlFUIPlwBY-44" connectable="0" vertex="1">
          <mxGeometry x="1" relative="1" as="geometry">
            <mxPoint x="-20" as="offset" />
          </mxGeometry>
        </mxCell>
        <mxCell id="RUVpXgQ6pnVlFUIPlwBY-47" value="" style="endArrow=none;html=1;edgeStyle=orthogonalEdgeStyle;rounded=0;exitX=0;exitY=0.5;exitDx=0;exitDy=0;entryX=0;entryY=0.5;entryDx=0;entryDy=0;" parent="1" source="RUVpXgQ6pnVlFUIPlwBY-18" target="RUVpXgQ6pnVlFUIPlwBY-27" edge="1">
          <mxGeometry relative="1" as="geometry">
            <mxPoint x="60" y="242" as="sourcePoint" />
            <mxPoint x="200" y="328" as="targetPoint" />
          </mxGeometry>
        </mxCell>
        <mxCell id="RUVpXgQ6pnVlFUIPlwBY-48" value="1" style="edgeLabel;resizable=0;html=1;align=left;verticalAlign=bottom;" parent="RUVpXgQ6pnVlFUIPlwBY-47" connectable="0" vertex="1">
          <mxGeometry x="-1" relative="1" as="geometry">
            <mxPoint x="-20" as="offset" />
          </mxGeometry>
        </mxCell>
        <mxCell id="RUVpXgQ6pnVlFUIPlwBY-49" value="*" style="edgeLabel;resizable=0;html=1;align=right;verticalAlign=bottom;" parent="RUVpXgQ6pnVlFUIPlwBY-47" connectable="0" vertex="1">
          <mxGeometry x="1" relative="1" as="geometry">
            <mxPoint x="-20" as="offset" />
          </mxGeometry>
        </mxCell>
      </root>
    </mxGraphModel>
  </diagram>
</mxfile>
